<svg xmlns="http://www.w3.org/2000/svg" style="display: none;"><symbol id="sort-by-attributes-interface-button-option" viewBox="0 0 511.627 511.627"><title>sort-by-attributes-interface-button-option</title><path d="M260.494,219.271H388.4c2.666,0,4.855-0.855,6.563-2.57c1.715-1.713,2.573-3.9,2.573-6.567v-54.816 c0-2.667-0.858-4.854-2.573-6.567c-1.708-1.711-3.897-2.57-6.563-2.57H260.494c-2.666,0-4.853,0.855-6.567,2.57 c-1.71,1.713-2.568,3.9-2.568,6.567v54.816c0,2.667,0.855,4.854,2.568,6.567C255.641,218.413,257.828,219.271,260.494,219.271z"/><path d="M260.497,73.089h73.087c2.666,0,4.856-0.855,6.563-2.568c1.718-1.714,2.563-3.901,2.563-6.567V9.136 c0-2.663-0.846-4.853-2.563-6.567C338.44,0.859,336.25,0,333.584,0h-73.087c-2.666,0-4.853,0.855-6.567,2.568 c-1.709,1.715-2.568,3.905-2.568,6.567v54.818c0,2.666,0.855,4.853,2.568,6.567C255.645,72.23,257.831,73.089,260.497,73.089z"/><path d="M196.54,401.991h-54.817V9.136c0-2.663-0.854-4.856-2.568-6.567C137.441,0.859,135.254,0,132.587,0H77.769 c-2.663,0-4.856,0.855-6.567,2.568c-1.709,1.715-2.568,3.905-2.568,6.567v392.855H13.816c-4.184,0-7.04,1.902-8.564,5.708 c-1.525,3.621-0.855,6.95,1.997,9.996l91.361,91.365c2.094,1.707,4.281,2.562,6.567,2.562c2.474,0,4.665-0.855,6.567-2.562 l91.076-91.078c1.906-2.279,2.856-4.571,2.856-6.844c0-2.676-0.859-4.859-2.568-6.584 C201.395,402.847,199.208,401.991,196.54,401.991z"/><path d="M504.604,441.109c-1.715-1.718-3.901-2.573-6.567-2.573H260.497c-2.666,0-4.853,0.855-6.567,2.573 c-1.709,1.711-2.568,3.901-2.568,6.564v54.815c0,2.673,0.855,4.853,2.568,6.571c1.715,1.711,3.901,2.566,6.567,2.566h237.539 c2.666,0,4.853-0.855,6.567-2.566c1.711-1.719,2.566-3.898,2.566-6.571v-54.815C507.173,445.011,506.314,442.82,504.604,441.109z"/><path d="M260.494,365.445H443.22c2.663,0,4.853-0.855,6.57-2.566c1.708-1.711,2.563-3.901,2.563-6.563v-54.823 c0-2.662-0.855-4.853-2.563-6.563c-1.718-1.711-3.907-2.566-6.57-2.566H260.494c-2.666,0-4.853,0.855-6.567,2.566 c-1.71,1.711-2.568,3.901-2.568,6.563v54.823c0,2.662,0.855,4.853,2.568,6.563C255.641,364.59,257.828,365.445,260.494,365.445z"/></symbol><symbol id="sort-by-attributes" viewBox="0 0 511.627 511.627"><title>sort-by-attributes</title><path d="M333.584,438.536h-73.087c-2.666,0-4.853,0.855-6.567,2.573c-1.709,1.711-2.568,3.901-2.568,6.564v54.815 c0,2.673,0.855,4.853,2.568,6.571c1.715,1.711,3.901,2.566,6.567,2.566h73.087c2.666,0,4.856-0.855,6.563-2.566 c1.718-1.719,2.563-3.898,2.563-6.571v-54.815c0-2.663-0.846-4.854-2.563-6.564C338.44,439.392,336.25,438.536,333.584,438.536z"/><path d="M196.54,401.991h-54.817V9.136c0-2.663-0.854-4.856-2.568-6.567C137.441,0.859,135.254,0,132.587,0H77.769 c-2.663,0-4.856,0.855-6.567,2.568c-1.709,1.715-2.568,3.905-2.568,6.567v392.855H13.816c-4.184,0-7.04,1.902-8.564,5.708 c-1.525,3.621-0.855,6.95,1.997,9.996l91.361,91.365c2.094,1.707,4.281,2.562,6.567,2.562c2.474,0,4.665-0.855,6.567-2.562 l91.076-91.078c1.906-2.279,2.856-4.571,2.856-6.844c0-2.676-0.859-4.859-2.568-6.584 C201.395,402.847,199.208,401.991,196.54,401.991z"/><path d="M388.4,292.362H260.494c-2.666,0-4.853,0.855-6.567,2.566c-1.71,1.711-2.568,3.901-2.568,6.563v54.823 c0,2.662,0.855,4.853,2.568,6.563c1.714,1.711,3.901,2.566,6.567,2.566H388.4c2.666,0,4.855-0.855,6.563-2.566 c1.715-1.711,2.573-3.901,2.573-6.563v-54.823c0-2.662-0.858-4.853-2.573-6.563C393.256,293.218,391.066,292.362,388.4,292.362z"/><path d="M504.604,2.568C502.889,0.859,500.702,0,498.036,0H260.497c-2.666,0-4.853,0.855-6.567,2.568 c-1.709,1.715-2.568,3.905-2.568,6.567v54.818c0,2.666,0.855,4.853,2.568,6.567c1.715,1.709,3.901,2.568,6.567,2.568h237.539 c2.666,0,4.853-0.855,6.567-2.568c1.711-1.714,2.566-3.901,2.566-6.567V9.136C507.173,6.473,506.314,4.279,504.604,2.568z"/><path d="M443.22,146.181H260.494c-2.666,0-4.853,0.855-6.567,2.57c-1.71,1.713-2.568,3.9-2.568,6.567v54.816 c0,2.667,0.855,4.854,2.568,6.567c1.714,1.711,3.901,2.57,6.567,2.57H443.22c2.663,0,4.853-0.855,6.57-2.57 c1.708-1.713,2.563-3.9,2.563-6.567v-54.816c0-2.667-0.855-4.858-2.563-6.567C448.069,147.04,445.879,146.181,443.22,146.181z"/></symbol><symbol id="sort-by-alphabet" viewBox="0 0 511.626 511.627"><title>sort-by-alphabet</title><path d="M215.232,401.991h-54.818V9.136c0-2.663-0.854-4.856-2.568-6.567C156.133,0.859,153.946,0,151.279,0H96.461 c-2.663,0-4.856,0.855-6.567,2.568c-1.709,1.715-2.568,3.905-2.568,6.567v392.855H32.507c-4.184,0-7.039,1.902-8.563,5.708 c-1.525,3.621-0.856,6.95,1.997,9.996l91.361,91.365c2.096,1.707,4.281,2.562,6.567,2.562c2.474,0,4.664-0.855,6.567-2.562 l91.076-91.078c1.906-2.279,2.856-4.571,2.856-6.844c0-2.676-0.854-4.859-2.568-6.584 C220.086,402.847,217.9,401.991,215.232,401.991z"/><path d="M428.511,479.082h-70.808c-3.997,0-6.852,0.191-8.559,0.568l-4.001,0.571v-0.571l3.142-3.142 c2.848-3.419,4.853-5.896,5.996-7.409l105.344-151.331v-25.406H297.744v65.377h34.263v-32.832h66.236 c3.422,0,6.283-0.288,8.555-0.855c0.572,0,1.287-0.048,2.143-0.145c0.853-0.085,1.475-0.144,1.852-0.144v0.855l-3.142,2.574 c-1.704,1.711-3.713,4.273-5.995,7.706L296.31,485.934v25.693h166.734v-66.521h-34.54v33.976H428.511z"/><path d="M468.475,189.008L402.807,0h-46.25l-65.664,189.008h-19.979v30.264h81.933v-30.264h-21.409l13.419-41.112h69.381 l13.415,41.112H406.25v30.264h82.228v-30.264H468.475z M354.278,116.487l20.841-62.241c0.76-2.285,1.479-5.046,2.143-8.28 c0.66-3.236,0.996-4.949,0.996-5.139l0.855-5.708h1.143c0,0.761,0.191,2.664,0.562,5.708l3.433,13.418l20.554,62.241H354.278z"/></symbol><symbol id="sort-reverse-alphabetical-order" viewBox="0 0 511.626 511.627"><title>sort-reverse-alphabetical-order</title><path d="M215.232,401.991h-54.818V9.136c0-2.663-0.854-4.856-2.568-6.567C156.133,0.859,153.946,0,151.279,0H96.461 c-2.663,0-4.856,0.855-6.567,2.568c-1.709,1.715-2.568,3.905-2.568,6.567v392.855H32.507c-4.184,0-7.039,1.902-8.563,5.708 c-1.525,3.621-0.856,6.95,1.997,9.996l91.361,91.365c2.096,1.707,4.281,2.562,6.567,2.562c2.474,0,4.664-0.855,6.567-2.562 l91.076-91.078c1.906-2.279,2.856-4.571,2.856-6.844c0-2.676-0.854-4.859-2.568-6.584 C220.086,402.847,217.9,401.991,215.232,401.991z"/><path d="M468.475,481.361l-65.664-189.01h-46.25L290.9,481.364H270.92v30.263h81.934v-30.266h-21.412l13.418-41.11h69.381 l13.415,41.11H406.25v30.266h82.228v-30.266H468.475z M354.278,408.846l20.841-62.242c0.76-2.283,1.479-5.045,2.143-8.278 c0.66-3.234,0.996-4.948,0.996-5.137l0.855-5.715h1.143c0,0.767,0.191,2.669,0.562,5.715l3.433,13.415l20.554,62.242H354.278z"/><path d="M463.055,152.745h-34.537v33.975H357.71c-4.001,0-6.852,0.097-8.556,0.288l-4.004,0.854v-0.854l3.142-2.858 c2.851-3.422,4.853-5.896,5.996-7.421L459.632,25.41V0H297.754v65.387h34.259V32.552h66.232c3.426,0,6.283-0.288,8.56-0.859 c0.571,0,1.286-0.048,2.142-0.144c0.855-0.094,1.476-0.144,1.854-0.144v0.855l-3.141,2.568c-1.708,1.713-3.71,4.283-5.996,7.71 L296.32,193.569v25.697h166.735V152.745z"/></symbol><symbol id="sort-by-order" viewBox="0 0 511.63 511.63"><title>sort-by-order</title><path d="M240.214,401.994h-54.816V9.139c0-2.663-0.855-4.856-2.57-6.567c-1.713-1.709-3.899-2.568-6.567-2.568h-54.816 c-2.664,0-4.858,0.856-6.567,2.568c-1.711,1.714-2.57,3.905-2.57,6.567v392.855H57.491c-4.186,0-7.042,1.903-8.566,5.709 c-1.524,3.62-0.854,6.95,1.999,9.999l91.36,91.365c2.096,1.704,4.283,2.56,6.567,2.56c2.475,0,4.665-0.855,6.567-2.56 l91.076-91.078c1.908-2.282,2.857-4.571,2.857-6.848c0-2.673-0.855-4.855-2.57-6.581 C245.068,402.85,242.881,401.994,240.214,401.994z"/><path d="M407.804,292.369L407.804,292.369h-35.114l-54.823,52.814l23.421,24.55l17.7-16.556c3.425-3.433,5.899-6.379,7.419-8.854 l1.995-3.429h0.571v4.568c0,0.955-0.055,2.57-0.144,4.856c-0.089,2.285-0.144,4.093-0.144,5.427v123.339h-47.671v32.544h133.902 v-32.544h-47.109V292.369H407.804z"/><path d="M440.062,26.98C424.452,8.992,404.946,0,381.532,0c-20.749,0-37.973,6.949-51.679,20.845 c-13.698,13.894-20.55,30.833-20.55,50.819c0,19.224,6.369,35.642,19.13,49.249c12.758,13.611,29.212,20.417,49.389,20.417 c8.385,0,16.427-1.334,24.133-3.999c7.7-2.667,13.562-6.189,17.56-10.566h0.571c-3.046,16.558-9.377,30.404-18.986,41.54 c-9.609,11.134-22.415,16.702-38.403,16.702c-7.228,0-14.366-1.237-21.402-3.711c-3.046-0.759-5.995-1.809-8.85-3.14 l-11.136,32.264c3.426,1.332,7.419,2.758,11.995,4.283c8.75,3.044,19.034,4.569,30.833,4.569c13.135,0,25.267-2.329,36.401-6.993 c11.137-4.665,20.513-10.9,28.12-18.702c7.618-7.806,14.089-16.892,19.418-27.264c5.328-10.373,9.229-21.223,11.703-32.548 c2.478-11.326,3.72-22.886,3.72-34.689C463.485,69,455.673,44.971,440.062,26.98z M413.516,101.929 c-6.659,5.14-14.753,7.71-24.267,7.71c-12.939,0-22.891-3.617-29.845-10.85c-6.943-7.232-10.424-16.274-10.424-27.122 c0-10.85,2.95-19.794,8.85-26.836c5.896-7.043,13.798-10.566,23.698-10.566c11.229,0,21.033,5.042,29.414,15.131 c8.377,10.09,12.559,21.128,12.559,33.12C423.501,90.319,420.175,96.792,413.516,101.929z"/></symbol><symbol id="sort-by-numeric-order" viewBox="0 0 511.63 511.63"><title>sort-by-numeric-order</title><path d="M240.214,401.991h-54.816V9.136c0-2.663-0.855-4.856-2.57-6.567C181.115,0.859,178.928,0,176.261,0h-54.816 c-2.664,0-4.858,0.855-6.567,2.568c-1.711,1.715-2.57,3.905-2.57,6.567v392.855H57.491c-4.186,0-7.042,1.902-8.566,5.708 c-1.524,3.621-0.854,6.95,1.999,9.996l91.36,91.365c2.096,1.707,4.283,2.562,6.567,2.562c2.475,0,4.665-0.855,6.567-2.562 l91.076-91.078c1.908-2.279,2.857-4.571,2.857-6.844c0-2.676-0.855-4.859-2.57-6.584 C245.068,402.847,242.881,401.991,240.214,401.991z"/><path d="M440.062,319.332c-15.609-17.986-35.115-26.977-58.529-26.977c-20.749,0-37.973,6.943-51.679,20.841 c-13.698,13.894-20.55,30.834-20.55,50.819c0,19.226,6.369,35.638,19.13,49.252c12.758,13.605,29.212,20.409,49.389,20.409 c8.385,0,16.427-1.331,24.133-3.997c7.7-2.662,13.562-6.188,17.56-10.561h0.571c-3.046,16.557-9.377,30.402-18.986,41.538 s-22.415,16.7-38.403,16.7c-7.228,0-14.366-1.235-21.402-3.71c-3.046-0.76-5.995-1.807-8.85-3.142l-11.136,32.265 c3.426,1.334,7.419,2.758,11.995,4.295c8.75,3.035,19.034,4.564,30.833,4.564c13.135,0,25.267-2.33,36.401-6.994 c11.137-4.661,20.513-10.887,28.12-18.699c7.618-7.812,14.089-16.882,19.418-27.265c5.328-10.376,9.229-21.228,11.703-32.537 c2.478-11.328,3.72-22.895,3.72-34.694C463.485,361.356,455.673,337.326,440.062,319.332z M413.516,394.288 c-6.659,5.14-14.753,7.71-24.267,7.71c-12.939,0-22.895-3.617-29.845-10.849c-6.947-7.23-10.424-16.279-10.424-27.124 c0-10.841,2.95-19.79,8.85-26.833c5.899-7.046,13.798-10.571,23.698-10.571c11.229,0,21.033,5.041,29.414,15.13 c8.377,10.088,12.559,21.121,12.559,33.119C423.501,382.673,420.182,389.151,413.516,394.288z"/><path d="M358.979,60.817c3.426-3.427,5.9-6.374,7.42-8.851l1.995-3.428h0.571v4.57c0,0.948-0.055,2.568-0.144,4.853 c-0.089,2.284-0.144,4.093-0.144,5.424v123.338h-47.671v32.548H454.91v-32.548h-47.109V0h-35.118l-54.816,52.825l23.421,24.554 L358.979,60.817z"/></symbol></svg>